# xmcd
#
# Track frame offsets:
#	150
#	20150
#	41462
#	58575
#	77900
#	98912
#	115800
#	132050
#	152725
#	170362
#	188325
#	208212
#	228575
#	246537
#	259037
#	276825
#	295137
#	319600
#
# Disc length: 4475
#
# Revision: 2
# Processed by: cddbd v1.5.1PL0 Copyright (c) Steve Scherf et al.
# Submitted via: audiograbber 1.80.04
# Normalized: r1:DSETVAR1,TDELIM( - )
#
DISCID=fe117912
DTITLE=Various Artist - Best of Emozioni - CD 2
DYEAR=1995
DGENRE=Slow Jam
TTITLE0=Toto Cutugno - Voglio andare a vivere in campagna
TTITLE1=Lucio Dalla - Don't touch me
TTITLE2=Matia Bazari - L'amore non finisce mai
TTITLE3=Audio 2 - Alle venti ...
TTITLE4=Mario amici and Giorgia - Che goccia sei
TTITLE5=Meccano - Un amore per vincere
TTITLE6=Franco Califano - Napoli
TTITLE7=Enzo Belmonte - Domani
TTITLE8=Elite - Senza tregua
TTITLE9=Scialpi - Baciami
TTITLE10=Eduardo de Crescenzo - Cuore
TTITLE11=Edoardo de Angelis and Antonello Venditti - Lella
TTITLE12=I santo California - Tornero
TTITLE13=Adriano Celentano - Nata per me
TTITLE14=Amadeo Minghi - I ricordi del cuore
TTITLE15=Cavaliere - Ragazzi che
TTITLE16=Pooh and Eros Ramazotti and Raf and Enrico Ruggeri and Umberto Tozzi - Tu vivrai
TTITLE17=Al Bano and Romina Power - Na na na
EXTD=
EXTT0=
EXTT1=
EXTT2=
EXTT3=
EXTT4=
EXTT5=
EXTT6=
EXTT7=
EXTT8=
EXTT9=
EXTT10=
EXTT11=
EXTT12=
EXTT13=
EXTT14=
EXTT15=
EXTT16=
EXTT17=
PLAYORDER=
